<svg xmlns="http://www.w3.org/2000/svg" viewBox="0 0 64 64"><path fill="none" d="M32 17.91c-.81-.18-1.76-.29-2.9-.3-1.14 0-2.08.05-2.81.11V28.19l.18.16h2.83c.19 0 .37 0 .55-.02.11 0 .21 0 .3-.01.25-.01.49-.04.72-.07.09-.01.19-.03.28-.05.29-.04.58-.1.85-.17l.21-.06c.1-.02.19-.05.28-.08a6.17 6.17 0 0 0 1.529-.72c.011 0 .021 0 .021-.01.03-.02.06-.04.08-.06.01 0 .02-.01.03-.02.189-.13.369-.27.54-.43.77-.7 1.26-1.61 1.449-2.69.061-.33.091-.68.091-1.04 0-1.2 0-4.08-4.23-5.01z"/><path fill="#3d9448" d="M15.89 53.05a2.5 2.5 0 0 0 2.5 2.5h5.4a2.5 2.5 0 0 0 2.5-2.5V40.04h-10.4v13.01zm31.92-1.19c-.8-1.47-2.06-6.89-2.989-10.84-.08-.33-.16-.66-.25-.98H33.64c.46.88.82 2.03 1.16 3.58 1.46 6.45 2.29 9.34 3.061 10.68a2.521 2.521 0 0 0 2.17 1.25h5.58c.88 0 1.689-.47 2.14-1.22a2.48 2.48 0 0 0 .059-2.47z"/><path fill="#eaeaea" d="M22.87 31.99a7.09 7.09 0 0 1 3.42-6.07v-1.96h-10.4v16.08h10.4v-1.96a7.124 7.124 0 0 1-3.42-6.09z"/><path fill="#eaeaea" d="M26.08 27.19c-.09 0-.18-.04-.23-.11-.13.11-.26.24-.39.36l.83.75V27.1c-.05.06-.13.09-.21.09z"/><path fill="#eaeaea" d="M32.19 38.06c-.01-.04-.02-.08-.02-.12 0-.15.13-.29.3-.29.12 0 .22.06.27.18.16-.08.31-.16.47-.25L32 35.71l-.74-1.15-.75-1.64c.01 0 .02-.01.03-.02l1.06 1.49.4.78 1.23 2.4c.149-.1.319-.21.47-.3-.01-.04-.021-.08-.021-.13 0-.16.13-.3.301-.3.06 0 .119.02.18.07.14-.12.26-.22.38-.35L32 34.26l-.11-.1-1.15-1.39c.01-.01.02-.02.03-.04L32 33.76l.15.12 2.41 2.66c.12-.12.24-.26.36-.39-.08-.05-.11-.13-.11-.23 0-.16.12-.28.29-.28.061 0 .131.02.17.04.11-.14.2-.3.301-.46l-3.19-1.63-.381-.27-.31-.22-.79-.56c.01-.01.01-.02.02-.03L32 33l.56.26h.01l3.01 1.95c.09-.15.17-.31.25-.47a.704.704 0 0 0-.021-.02c-.01 0-.02-.01-.029-.02-.011 0-.011-.01-.021-.01a.203.203 0 0 1-.08-.12.18.18 0 0 1-.029-.11c0-.17.13-.29.29-.29h.069c.01 0 .03.01.04.01.07-.15.12-.33.16-.51l-3.5-.75-.709-.26-.99-.36c0-.02.01-.03.01-.05l.98.16.81.14 2.19.71 1.22.39c.04-.17.08-.34.11-.52a.29.29 0 0 1-.24-.29c0-.15.13-.3.29-.3h.03c.02-.17.02-.35.02-.54l-3.58.19-.85-.08-.93-.09v-.05l.93-.08.85-.08 3.58.17c0-.17 0-.36-.02-.53h-.03a.29.29 0 0 1-.29-.29c0-.16.101-.27.25-.29-.03-.18-.08-.37-.12-.52l-3.41 1.09-.81.14-.98.17c0-.02 0-.03-.01-.05l.99-.37.71-.26 3.5-.74c-.04-.17-.09-.33-.15-.5-.029.02-.06.03-.119.03-.15 0-.28-.13-.28-.29 0-.13.08-.24.18-.29-.08-.15-.16-.33-.26-.5l-3.02 1.96L32 31l-1.07.49-.03-.03 1.1-.79.38-.27 3.19-1.63c-.09-.15-.19-.31-.29-.45-.05.03-.11.05-.181.05a.29.29 0 0 1-.29-.29c0-.09.03-.17.11-.23-.11-.14-.24-.27-.36-.4l-2.41 2.67-.149.12-1.23 1.02-.03-.03 1.15-1.39.11-.1 2.54-2.3c-.12-.12-.24-.24-.39-.36-.011.01-.021.02-.03.02a.617.617 0 0 1-.08.06c0 .01-.01.01-.021.01-.439.29-.96.54-1.529.72l-.49.95-.4.78-1.06 1.48-.03-.03.76-1.65.73-1.13.21-.32-.21.06c-.27.07-.56.13-.85.17l-.23 1.08-.63 1.71c-.01 0-.03-.01-.04-.01l.31-1.78.31-.95c-.23.03-.47.06-.72.07l.04.83-.16 1.79c-.01 0-.01-.01-.02-.01s-.01.01-.02.01l-.18-1.79.04-.82c-.18.02-.36.02-.55.02h-.12l.27.85.31 1.78c-.02.01-.03.01-.05.01l-.63-1.71-.2-.93h-.84l.7 1.07.75 1.66-.03.03-1.06-1.49-.65-1.27h-1.28l1.65 1.49 1.15 1.39-.03.03-1.4-1.14-2.4-2.67c-.13.13-.25.26-.36.39.07.07.11.15.11.24 0 .16-.13.29-.29.29-.06 0-.13-.02-.18-.07-.1.16-.2.32-.29.47l3.2 1.63 1.48 1.06c-.01.01-.02.02-.03.04l-1.65-.76-3.01-1.96c-.09.16-.17.32-.24.49.09.04.17.14.17.27 0 .16-.13.29-.29.29-.04 0-.08-.01-.12-.02-.05.16-.11.33-.16.51l3.51.75 1.71.63c-.01.02-.01.03-.01.05l-1.8-.31-3.41-1.09c-.05.15-.08.34-.12.52.15.02.27.13.27.29 0 .17-.13.29-.29.29h-.06c0 .17-.02.36-.02.53l3.58-.17 1.8.16v.05l-1.8.17-3.58-.19c0 .19.02.37.02.54h.04c.16 0 .29.14.29.3 0 .15-.1.26-.25.28.04.19.07.36.12.53l3.41-1.1 1.8-.3c.01.02.01.03.01.05l-1.71.62-3.51.75c.05.18.11.36.16.52.04-.01.09-.02.13-.02a.295.295 0 0 1 .11.57c.08.17.15.32.24.47l3.01-1.95 1.66-.75c0 .01.01.02.02.03l-1.48 1.04-3.2 1.64c.09.16.19.31.29.45.05-.02.11-.04.18-.04.16 0 .29.12.29.28 0 .1-.05.18-.11.24.11.12.23.27.37.39l2.4-2.66 1.39-1.15c.01.01.02.02.03.04l-1.15 1.39-2.66 2.4c.12.13.25.23.39.36.05-.07.13-.11.23-.11.16 0 .29.13.29.3 0 .06-.02.12-.06.16.08.06.17.11.26.17h.27l1.56-3.06 1.06-1.49c.01.01.02.02.03.02l-.75 1.65-1.86 2.88h1.6l.59-2.74.64-1.7c.01.01.02.01.04.01l-.31 1.79-.85 2.64h.18c.42.02.81.04 1.18.09l-.14-2.67.17-1.8c.01 0 .02.01.03.01l.01-.01.17 1.8-.14 2.69c.57.07 1.08.2 1.53.41l-1.02-3.16-.31-1.78c.01-.01.03-.01.04-.01l.63 1.69.71 3.28c.11.05.2.1.3.16h.01c.02-.01.04-.01.06-.02.06-.02.13-.04.19-.06zm-2.183-5.236a.832.832 0 0 1-.834-.833.82.82 0 0 1 .834-.815c.453 0 .82.359.82.815a.825.825 0 0 1-.82.833z"/><path fill="#eaeaea" d="M41.03 33.31c3.08-2.22 5.05-5.52 5.489-9.35H36.14c-.189 1.08-.68 1.99-1.449 2.69a7.03 7.03 0 0 1 2.439 5.34c0 3.02-1.88 5.6-4.53 6.64.39.35.74.81 1.04 1.41h10.93c-.77-2.85-1.96-5.1-3.54-6.73z"/><path fill="#f0953e" d="M26.29 17.72c.73-.06 1.67-.11 2.81-.11 1.14.01 2.09.12 2.9.3 4.23.93 4.23 3.81 4.23 5.01 0 .36-.03.71-.091 1.04h10.38c.07-.55.101-1.1.101-1.66 0-3.98-1.47-7.46-4.11-9.79C39.97 10.2 36.65 8.95 32 8.57c-1.02-.08-2.1-.12-3.25-.12-3.99 0-8.05.35-10.86.92-1.16.24-2 1.26-2 2.45v12.14h10.4v-6.24z"/><path fill="#2a2874" d="M30.29 33.01c-.01 0-.03 0-.04.01l.31 1.78 1.02 3.16c.02.01.04.01.05.02l-.71-3.28-.63-1.69zm-.54 0c-.02 0-.03 0-.04-.01l-.64 1.7-.59 2.74h.11l.85-2.64.31-1.79zm.81-3.81-.31 1.78c.01 0 .03.01.04.01l.63-1.71.23-1.08c-.09.02-.19.04-.28.05l-.31.95zm-.54 3.86-.01.01c-.01 0-.02-.01-.03-.01l-.17 1.8.14 2.67c.04.01.07.01.1.02l.14-2.69-.17-1.8zm-1.62-3.44 1.06 1.49.03-.03-.75-1.66-.7-1.07h-.29l.65 1.27zm1.41-.47.18 1.79c.01 0 .01-.01.02-.01s.01.01.02.01l.16-1.79-.04-.83c-.09.01-.19.01-.3.01l-.04.82zm-3.44 7.96c0-.17-.13-.3-.29-.3-.1 0-.18.04-.23.11-.14-.13-.27-.23-.39-.36l2.66-2.4 1.15-1.39c-.01-.02-.02-.03-.03-.04l-1.39 1.15-2.4 2.66c-.14-.12-.26-.27-.37-.39a.34.34 0 0 0 .11-.24c0-.16-.13-.28-.29-.28-.07 0-.13.02-.18.04-.1-.14-.2-.29-.29-.45l3.2-1.64 1.48-1.04c-.01-.01-.02-.02-.02-.03l-1.66.75-3.01 1.95c-.09-.15-.16-.3-.24-.47a.295.295 0 0 0-.11-.57c-.04 0-.09.01-.13.02-.05-.16-.11-.34-.16-.52l3.51-.75L29 32.3c0-.02 0-.03-.01-.05l-1.8.3-3.41 1.1c-.05-.17-.08-.34-.12-.53.15-.02.25-.13.25-.28 0-.16-.13-.3-.29-.3h-.04c0-.17-.02-.35-.02-.54l3.58.19 1.8-.17v-.05l-1.8-.16-3.58.17c0-.17.02-.36.02-.53h.06c.16 0 .29-.12.29-.29 0-.16-.12-.27-.27-.29.04-.18.07-.37.12-.52l3.41 1.09 1.8.31c0-.02 0-.03.01-.05l-1.71-.63-3.51-.75c.05-.18.11-.35.16-.51.04.01.08.02.12.02.16 0 .29-.13.29-.29 0-.13-.08-.23-.17-.27.07-.17.15-.33.24-.49l3.01 1.96 1.65.76c.01-.02.02-.03.03-.04l-1.48-1.06-3.2-1.63c.09-.15.19-.31.29-.47.05.05.12.07.18.07.16 0 .29-.13.29-.29 0-.09-.04-.17-.11-.24.11-.13.23-.26.36-.39l2.4 2.67 1.4 1.14.03-.03-1.15-1.39-1.65-1.49-.18-.16-.83-.75c.13-.12.26-.25.39-.36.05.07.14.11.23.11.08 0 .16-.03.21-.09v-1.18a7.09 7.09 0 0 0-3.42 6.07c0 2.58 1.37 4.84 3.42 6.09v-.64h.28c-.09-.06-.18-.11-.26-.17.04-.04.06-.1.06-.16zm2.71-7.83.63 1.71c.02 0 .03 0 .05-.01l-.31-1.78-.27-.85h-.3l.2.93zm.41 3.63c-.01 0-.02-.01-.03-.02l-1.06 1.49-1.56 3.06h.04l1.86-2.88.75-1.65zM32 28.29l-.73 1.13-.76 1.65.03.03 1.06-1.48.4-.78.49-.95c-.09.03-.18.06-.28.08l-.21.32zm5.13 3.7c0-2.14-.95-4.06-2.439-5.34-.171.16-.351.3-.54.43.149.12.27.24.39.36L32 29.74l-.11.1-1.15 1.39.03.03L32 30.24l.15-.12 2.41-2.67c.12.13.25.26.36.4a.27.27 0 0 0-.11.23c0 .16.131.29.29.29.07 0 .131-.02.181-.05.1.14.2.3.29.45l-3.19 1.63-.381.27-1.1.79.03.03L32 31l.56-.26 3.02-1.96c.1.17.18.35.26.5-.1.05-.18.16-.18.29 0 .16.13.29.28.29.06 0 .09-.01.119-.03.061.17.11.33.15.5l-3.5.74-.709.26-.99.37c.01.02.01.03.01.05l.98-.17.81-.14 3.41-1.09c.04.15.09.34.12.52a.277.277 0 0 0-.25.29c0 .16.13.29.29.29h.03c.02.17.02.36.02.53l-3.58-.17-.85.08-.93.08v.05l.93.09.85.08 3.58-.19c0 .19 0 .37-.02.54h-.03c-.16 0-.29.15-.29.3s.101.26.24.29c-.03.18-.07.35-.11.52L35 33.26l-2.19-.71-.81-.14-.98-.16c0 .02-.01.03-.01.05l.99.36.71.26 3.5.75c-.04.18-.09.36-.16.51-.01 0-.03-.01-.04-.01h-.07c-.16 0-.29.12-.29.29 0 .05.01.08.029.11.011.05.04.09.08.12.01 0 .01.01.021.01.01.01.02.02.029.02l.021.02c-.08.16-.16.32-.25.47l-3.01-1.95h-.01L32 33l-1.08-.49c-.01.01-.01.02-.02.03l.79.56.31.22.38.27 3.19 1.63c-.101.16-.19.32-.301.46a.417.417 0 0 0-.17-.04c-.17 0-.29.12-.29.28 0 .1.03.18.11.23-.12.13-.24.27-.36.39l-2.41-2.66-.149-.12-1.23-1.03c-.01.02-.02.03-.03.04l1.15 1.39.11.1 2.54 2.3c-.12.13-.24.23-.38.35a.276.276 0 0 0-.18-.07.301.301 0 0 0-.301.3c0 .05.011.09.021.13-.15.09-.32.2-.47.3L32 35.17l-.4-.78-1.06-1.49c-.01.01-.02.02-.03.02l.75 1.64.74 1.15 1.21 1.87c-.16.09-.31.17-.47.25a.279.279 0 0 0-.27-.18c-.17 0-.3.14-.3.29 0 .04.01.08.02.12-.06.02-.13.04-.19.06-.02.01-.04.01-.06.02.02.02.04.03.06.04.21.13.41.27.6.45a7.135 7.135 0 0 0 4.53-6.64z"/><path fill="#2a2874" d="M30.827 31.991a.814.814 0 0 0-.82-.815.82.82 0 0 0-.834.815c0 .463.373.833.834.833.453 0 .82-.37.82-.833z"/></svg>